#DATAKIT Version 243
mtllib .\Peça1.mtl
#
#	object Mesh_3
#
v -0.000000 0.000000 -26.494301
v 6.857230 0.000000 -25.591499
v 13.247100 0.000000 -22.944700
v 18.734301 0.000000 -18.734301
v 22.944700 0.000000 -13.247100
v 25.591499 0.000000 -6.857230
v 26.494301 0.000000 -0.000000
v 25.591499 0.000000 6.857230
v 22.944700 0.000000 13.247100
v 18.734301 0.000000 18.734301
v 13.247100 0.000000 22.944700
v 6.857230 0.000000 25.591499
v 0.000000 0.000000 26.494301
v -6.857230 0.000000 25.591499
v -13.247100 0.000000 22.944700
v -18.734301 0.000000 18.734301
v -22.944700 0.000000 13.247100
v -25.591499 0.000000 6.857230
v -26.494301 0.000000 0.000000
v -25.591499 0.000000 -6.857230
v -22.944700 0.000000 -13.247100
v -18.734301 0.000000 -18.734301
v -13.247100 0.000000 -22.944700
v -6.857230 0.000000 -25.591499
v -0.000000 8.000000 -26.494301
v 6.857230 8.000000 -25.591499
v 13.247100 8.000000 -22.944700
v 18.734301 8.000000 -18.734301
v 22.944700 8.000000 -13.247100
v 25.591499 8.000000 -6.857230
v 26.494301 8.000000 -0.000000
v 25.591499 8.000000 6.857230
v 22.944700 8.000000 13.247100
v 18.734301 8.000000 18.734301
v 13.247100 8.000000 22.944700
v 6.857230 8.000000 25.591499
v 0.000000 8.000000 26.494301
v -6.857230 8.000000 25.591499
v -13.247100 8.000000 22.944700
v -18.734301 8.000000 18.734301
v -22.944700 8.000000 13.247100
v -25.591499 8.000000 6.857230
v -26.494301 8.000000 0.000000
v -25.591499 8.000000 -6.857230
v -22.944700 8.000000 -13.247100
v -18.734301 8.000000 -18.734301
v -13.247100 8.000000 -22.944700
v -6.857230 8.000000 -25.591499
v -400.000000 8.000000 255.505997
v -400.000000 8.000000 -256.493988
v -400.000000 0.000000 255.505997
v -400.000000 0.000000 -256.493988
v 400.000000 8.000000 -256.493988
v 400.000000 0.000000 -256.493988
v 400.000000 8.000000 255.505997
v 400.000000 0.000000 255.505997
vn 0.000000 0.000000 0.000000

g Mesh_3
usemtl mat-1
#
#	object Mesh_7
#
v -0.000000 8.000000 -26.494301
v -0.000000 0.000000 -26.494301
v 6.857230 8.000000 -25.591499
v 6.857230 0.000000 -25.591499
v 13.247100 8.000000 -22.944700
v 13.247100 0.000000 -22.944700
v 18.734301 8.000000 -18.734301
v 18.734301 0.000000 -18.734301
v 22.944700 8.000000 -13.247100
v 22.944700 0.000000 -13.247100
v 25.591499 8.000000 -6.857230
v 25.591499 0.000000 -6.857230
v 26.494301 8.000000 -0.000000
v 26.494301 0.000000 -0.000000
v 25.591499 8.000000 6.857230
v 25.591499 0.000000 6.857230
v 22.944700 8.000000 13.247100
v 22.944700 0.000000 13.247100
v 18.734301 8.000000 18.734301
v 18.734301 0.000000 18.734301
v 13.247100 8.000000 22.944700
v 13.247100 0.000000 22.944700
v 6.857230 8.000000 25.591499
v 6.857230 0.000000 25.591499
v 0.000000 8.000000 26.494301
v 0.000000 0.000000 26.494301
v -6.857230 8.000000 25.591499
v -6.857230 0.000000 25.591499
v -13.247100 8.000000 22.944700
v -13.247100 0.000000 22.944700
v -18.734301 8.000000 18.734301
v -18.734301 0.000000 18.734301
v -22.944700 8.000000 13.247100
v -22.944700 0.000000 13.247100
v -25.591499 8.000000 6.857230
v -25.591499 0.000000 6.857230
v -26.494301 8.000000 0.000000
v -26.494301 0.000000 0.000000
v -25.591499 8.000000 -6.857230
v -25.591499 0.000000 -6.857230
v -22.944700 8.000000 -13.247100
v -22.944700 0.000000 -13.247100
v -18.734301 8.000000 -18.734301
v -18.734301 0.000000 -18.734301
v -13.247100 8.000000 -22.944700
v -13.247100 0.000000 -22.944700
v -6.857230 8.000000 -25.591499
v -6.857230 0.000000 -25.591499
vn 0.000000 0.000000 1.000000
vn -0.258819 0.000000 0.965926
vn -0.500000 0.000000 0.866025
vn -0.707107 0.000000 0.707107
vn -0.866025 0.000000 0.500000
vn -0.965926 0.000000 0.258819
vn -1.000000 0.000000 0.000000
vn -0.965926 0.000000 -0.258819
vn -0.866025 0.000000 -0.500000
vn -0.707107 0.000000 -0.707107
vn -0.500000 0.000000 -0.866025
vn -0.258819 0.000000 -0.965926
vn -0.000000 0.000000 -1.000000
vn 0.258819 0.000000 -0.965926
vn 0.500000 0.000000 -0.866025
vn 0.707107 0.000000 -0.707107
vn 0.866025 0.000000 -0.500000
vn 0.965926 0.000000 -0.258819
vn 1.000000 0.000000 -0.000000
vn 0.965926 0.000000 0.258819
vn 0.866025 0.000000 0.500000
vn 0.707107 0.000000 0.707107
vn 0.500000 0.000000 0.866025
vn 0.258819 0.000000 0.965926

g Mesh_7
usemtl mat-2
f 57//2 58//2 59//3
f 58//2 60//3 59//3
f 59//3 60//3 61//4
f 60//3 62//4 61//4
f 61//4 62//4 63//5
f 62//4 64//5 63//5
f 63//5 64//5 65//6
f 64//5 66//6 65//6
f 65//6 66//6 67//7
f 66//6 68//7 67//7
f 67//7 68//7 69//8
f 68//7 70//8 69//8
f 69//8 70//8 71//9
f 70//8 72//9 71//9
f 71//9 72//9 73//10
f 72//9 74//10 73//10
f 73//10 74//10 75//11
f 74//10 76//11 75//11
f 75//11 76//11 77//12
f 76//11 78//12 77//12
f 77//12 78//12 79//13
f 78//12 80//13 79//13
f 79//13 80//13 81//14
f 80//13 82//14 81//14
f 81//14 82//14 83//15
f 82//14 84//15 83//15
f 83//15 84//15 85//16
f 84//15 86//16 85//16
f 85//16 86//16 87//17
f 86//16 88//17 87//17
f 87//17 88//17 89//18
f 88//17 90//18 89//18
f 89//18 90//18 91//19
f 90//18 92//19 91//19
f 91//19 92//19 93//20
f 92//19 94//20 93//20
f 93//20 94//20 95//21
f 94//20 96//21 95//21
f 95//21 96//21 97//22
f 96//21 98//22 97//22
f 97//22 98//22 99//23
f 98//22 100//23 99//23
f 99//23 100//23 101//24
f 100//23 102//24 101//24
f 101//24 102//24 103//25
f 102//24 104//25 103//25
f 103//25 104//25 57//2
f 104//25 58//2 57//2
#
#	object Mesh_11
#
v -400.000000 8.000000 255.505997
v -400.000000 8.000000 -256.493988
v -400.000000 0.000000 255.505997
v -400.000000 0.000000 -256.493988
vn -1.000000 0.000000 0.000000

g Mesh_11
usemtl mat-2
f 105//26 106//26 107//26
f 106//26 108//26 107//26
#
#	object Mesh_15
#
v -400.000000 8.000000 -256.493988
v 400.000000 8.000000 -256.493988
v -400.000000 0.000000 -256.493988
v 400.000000 0.000000 -256.493988
vn -0.000000 0.000000 -1.000000

g Mesh_15
usemtl mat-2
f 109//27 110//27 111//27
f 110//27 112//27 111//27
#
#	object Mesh_19
#
v 400.000000 8.000000 -256.493988
v 400.000000 8.000000 255.505997
v 400.000000 0.000000 -256.493988
v 400.000000 0.000000 255.505997
vn 1.000000 0.000000 -0.000000

g Mesh_19
usemtl mat-2
f 113//28 114//28 115//28
f 114//28 116//28 115//28
#
#	object Mesh_23
#
v 400.000000 8.000000 255.505997
v -400.000000 8.000000 255.505997
v 400.000000 0.000000 255.505997
v -400.000000 0.000000 255.505997
vn 0.000000 0.000000 1.000000

g Mesh_23
usemtl mat-2
f 117//29 118//29 119//29
f 118//29 120//29 119//29
#
#	object Mesh_27
#
v 22.944700 0.000000 -13.247100
v 18.734301 0.000000 -18.734301
v 400.000000 0.000000 -256.493988
v -18.734301 0.000000 -18.734301
v -400.000000 0.000000 -256.493988
v -13.247100 0.000000 -22.944700
v -6.857230 0.000000 -25.591499
v 6.857230 0.000000 25.591499
v 13.247100 0.000000 22.944700
v 400.000000 0.000000 255.505997
v 18.734301 0.000000 18.734301
v 22.944700 0.000000 13.247100
v 13.247100 0.000000 -22.944700
v 6.857230 0.000000 -25.591499
v 0.000000 0.000000 -26.494301
v -22.944700 0.000000 -13.247100
v -25.591499 0.000000 -6.857230
v -400.000000 0.000000 255.505997
v -26.494301 0.000000 0.000000
v 25.591499 0.000000 6.857230
v 26.494301 0.000000 -0.000000
v 25.591499 0.000000 -6.857230
v -25.591499 0.000000 6.857230
v -22.944700 0.000000 13.247100
v -18.734301 0.000000 18.734301
v -13.247100 0.000000 22.944700
v -6.857230 0.000000 25.591499
v 0.000000 0.000000 26.494301
vn 0.000000 -1.000000 0.000000

g Mesh_27
usemtl mat-2
f 121//30 122//30 123//30
f 124//30 125//30 126//30
f 125//30 127//30 126//30
f 128//30 129//30 130//30
f 129//30 131//30 130//30
f 130//30 131//30 132//30
f 122//30 133//30 123//30
f 133//30 134//30 123//30
f 123//30 134//30 125//30
f 134//30 135//30 125//30
f 125//30 135//30 127//30
f 124//30 136//30 125//30
f 136//30 137//30 125//30
f 125//30 137//30 138//30
f 137//30 139//30 138//30
f 132//30 140//30 130//30
f 140//30 141//30 130//30
f 130//30 141//30 123//30
f 141//30 142//30 123//30
f 123//30 142//30 121//30
f 139//30 143//30 138//30
f 143//30 144//30 138//30
f 138//30 144//30 145//30
f 145//30 146//30 138//30
f 146//30 147//30 138//30
f 138//30 147//30 130//30
f 147//30 148//30 130//30
f 130//30 148//30 128//30
#
#	object Mesh_31
#
v 400.000000 8.000000 -256.493988
v -400.000000 8.000000 -256.493988
v 0.000000 8.000000 -26.494301
v -13.247100 8.000000 22.944700
v -18.734301 8.000000 18.734301
v -400.000000 8.000000 255.505997
v -22.944700 8.000000 13.247100
v 13.247100 8.000000 22.944700
v 6.857230 8.000000 25.591499
v 400.000000 8.000000 255.505997
v 0.000000 8.000000 26.494301
v -6.857230 8.000000 25.591499
v 6.857230 8.000000 -25.591499
v 13.247100 8.000000 -22.944700
v 18.734301 8.000000 -18.734301
v 25.591499 8.000000 6.857230
v 22.944700 8.000000 13.247100
v 18.734301 8.000000 18.734301
v -22.944700 8.000000 -13.247100
v -18.734301 8.000000 -18.734301
v -25.591499 8.000000 6.857230
v -26.494301 8.000000 0.000000
v -25.591499 8.000000 -6.857230
v -13.247100 8.000000 -22.944700
v -6.857230 8.000000 -25.591499
v 22.944700 8.000000 -13.247100
v 25.591499 8.000000 -6.857230
v 26.494301 8.000000 -0.000000
vn 0.000000 1.000000 0.000000

g Mesh_31
usemtl mat-2
f 149//31 150//31 151//31
f 152//31 153//31 154//31
f 153//31 155//31 154//31
f 156//31 157//31 158//31
f 157//31 159//31 158//31
f 158//31 159//31 154//31
f 159//31 160//31 154//31
f 154//31 160//31 152//31
f 151//31 161//31 149//31
f 161//31 162//31 149//31
f 149//31 162//31 163//31
f 164//31 165//31 158//31
f 165//31 166//31 158//31
f 158//31 166//31 156//31
f 167//31 168//31 150//31
f 155//31 169//31 154//31
f 169//31 170//31 154//31
f 154//31 170//31 150//31
f 170//31 171//31 150//31
f 150//31 171//31 167//31
f 168//31 172//31 150//31
f 172//31 173//31 150//31
f 150//31 173//31 151//31
f 163//31 174//31 149//31
f 174//31 175//31 149//31
f 149//31 175//31 158//31
f 175//31 176//31 158//31
f 158//31 176//31 164//31
