#DATAKIT Version 243
mtllib .\Locomotiva.mtl
#
#	object Mesh_3
#
v 252.000000 0.000000 61.849998
v -18.000000 0.000000 61.849998
v 252.000000 70.000000 61.849998
v 163.000000 70.000000 61.849998
v 163.000000 50.000000 61.849998
v 99.000000 50.000000 61.849998
v 99.000000 63.000000 61.849998
v 50.500000 63.000000 61.849998
v 46.675800 62.796600 61.849998
v 43.015900 61.669201 61.849998
v 39.740101 59.685600 61.849998
v 37.045101 56.964901 61.849998
v 35.092602 53.670399 61.849998
v 34.000000 50.000000 61.849998
v -18.000000 29.500000 61.849998
v -18.000000 0.000000 0.000000
v -18.000000 29.500000 0.000000
v 34.000000 50.000000 0.000000
v 35.092602 53.670399 0.000000
v 37.045101 56.964901 0.000000
v 39.740101 59.685600 0.000000
v 43.015900 61.669201 0.000000
v 46.675800 62.796600 0.000000
v 50.500000 63.000000 0.000000
v 99.000000 63.000000 0.000000
v 99.000000 50.000000 0.000000
v 163.000000 50.000000 0.000000
v 163.000000 70.000000 0.000000
v 252.000000 70.000000 0.000000
v 252.000000 0.000000 0.000000
v -18.000000 -0.000000 61.849998
v -18.000000 -0.000000 0.000000
v 34.000000 50.000000 -0.000000
vn 0.000000 0.000000 0.000000

g Mesh_3
usemtl mat-1
#
#	object Mesh_7
#
v 34.000000 50.000000 61.849998
v -18.000000 29.500000 61.849998
v -18.000000 0.000000 61.849998
v 35.092602 53.670399 61.849998
v 50.500000 63.000000 61.849998
v 252.000000 70.000000 61.849998
v 163.000000 70.000000 61.849998
v 252.000000 0.000000 61.849998
v 163.000000 50.000000 61.849998
v 99.000000 50.000000 61.849998
v 99.000000 63.000000 61.849998
v 43.015900 61.669201 61.849998
v 39.740101 59.685600 61.849998
v 37.045101 56.964901 61.849998
v 46.675800 62.796600 61.849998
vn 0.000000 0.000000 1.000000

g Mesh_7
usemtl mat-2
f 34//2 35//2 36//2
f 37//2 34//2 38//2
f 39//2 40//2 41//2
f 40//2 42//2 41//2
f 41//2 42//2 36//2
f 42//2 43//2 36//2
f 36//2 43//2 34//2
f 43//2 44//2 34//2
f 34//2 44//2 38//2
f 45//2 46//2 47//2
f 37//2 38//2 47//2
f 38//2 48//2 47//2
f 47//2 48//2 45//2
#
#	object Mesh_11
#
v 50.500000 63.000000 0.000000
v 99.000000 63.000000 0.000000
v 99.000000 50.000000 0.000000
v 163.000000 70.000000 0.000000
v 252.000000 70.000000 0.000000
v 163.000000 50.000000 0.000000
v 252.000000 0.000000 0.000000
v -18.000000 0.000000 0.000000
v -18.000000 29.500000 0.000000
v 34.000000 50.000000 0.000000
v 35.092602 53.670399 0.000000
v 37.045101 56.964901 0.000000
v 39.740101 59.685600 0.000000
v 43.015900 61.669201 0.000000
v 46.675800 62.796600 0.000000
vn 0.000000 0.000000 -1.000000

g Mesh_11
usemtl mat-2
f 49//3 50//3 51//3
f 52//3 53//3 54//3
f 53//3 55//3 54//3
f 54//3 55//3 51//3
f 55//3 56//3 51//3
f 56//3 57//3 51//3
f 57//3 58//3 51//3
f 51//3 58//3 49//3
f 58//3 59//3 49//3
f 49//3 59//3 60//3
f 60//3 61//3 49//3
f 61//3 62//3 49//3
f 49//3 62//3 63//3
#
#	object Mesh_15
#
v -18.000000 -0.000000 61.849998
v -18.000000 29.500000 61.849998
v -18.000000 -0.000000 0.000000
v -18.000000 29.500000 0.000000
vn -1.000000 0.000000 0.000000

g Mesh_15
usemtl mat-2
f 64//4 65//4 66//4
f 65//4 67//4 66//4
#
#	object Mesh_19
#
v -18.000000 29.500000 61.849998
v 34.000000 50.000000 61.849998
v -18.000000 29.500000 -0.000000
v 34.000000 50.000000 -0.000000
vn -0.366759 0.930316 0.000000

g Mesh_19
usemtl mat-2
f 68//5 69//5 70//5
f 69//5 71//5 70//5
#
#	object Mesh_23
#
v 50.500000 63.000000 61.849998
v 50.500000 63.000000 0.000000
v 46.675800 62.796600 0.000000
v 46.675800 62.796600 61.849998
v 43.015900 61.669201 0.000000
v 43.015900 61.669201 61.849998
v 39.740101 59.685600 0.000000
v 39.740101 59.685600 61.849998
v 37.045101 56.964901 0.000000
v 37.045101 56.964901 61.849998
v 35.092602 53.670399 0.000000
v 35.092602 53.670399 61.849998
v 34.000000 50.000000 0.000000
v 34.000000 50.000000 61.849998
vn 0.069633 0.997573 0.000000
vn -0.175069 0.984556 0.000000
vn -0.409258 0.912419 0.000000
vn -0.618872 0.785492 0.000000
vn -0.791324 0.611397 0.000000
vn -0.916258 0.400589 0.000000
vn -0.986172 0.165726 0.000000

g Mesh_23
usemtl mat-2
f 72//6 73//6 74//7
f 72//6 74//7 75//7
f 74//7 76//8 75//7
f 75//7 76//8 77//8
f 76//8 78//9 77//8
f 77//8 78//9 79//9
f 78//9 80//10 79//9
f 79//9 80//10 81//10
f 80//10 82//11 81//10
f 81//10 82//11 83//11
f 82//11 84//12 83//11
f 83//11 84//12 85//12
#
#	object Mesh_27
#
v 50.500000 63.000000 61.849998
v 99.000000 63.000000 61.849998
v 50.500000 63.000000 0.000000
v 99.000000 63.000000 0.000000
vn 0.000000 1.000000 0.000000

g Mesh_27
usemtl mat-2
f 86//13 87//13 88//13
f 87//13 89//13 88//13
#
#	object Mesh_31
#
v 99.000000 63.000000 61.849998
v 99.000000 50.000000 61.849998
v 99.000000 63.000000 0.000000
v 99.000000 50.000000 0.000000
vn 1.000000 0.000000 0.000000

g Mesh_31
usemtl mat-2
f 90//14 91//14 92//14
f 91//14 93//14 92//14
#
#	object Mesh_35
#
v 99.000000 50.000000 61.849998
v 163.000000 50.000000 61.849998
v 99.000000 50.000000 0.000000
v 163.000000 50.000000 0.000000
vn 0.000000 1.000000 0.000000

g Mesh_35
usemtl mat-2
f 94//15 95//15 96//15
f 95//15 97//15 96//15
#
#	object Mesh_39
#
v 163.000000 50.000000 61.849998
v 163.000000 70.000000 61.849998
v 163.000000 50.000000 0.000000
v 163.000000 70.000000 0.000000
vn -1.000000 0.000000 0.000000

g Mesh_39
usemtl mat-2
f 98//16 99//16 100//16
f 99//16 101//16 100//16
#
#	object Mesh_43
#
v 163.000000 70.000000 61.849998
v 252.000000 70.000000 61.849998
v 163.000000 70.000000 0.000000
v 252.000000 70.000000 0.000000
vn 0.000000 1.000000 0.000000

g Mesh_43
usemtl mat-2
f 102//17 103//17 104//17
f 103//17 105//17 104//17
#
#	object Mesh_47
#
v 252.000000 70.000000 61.849998
v 252.000000 0.000000 61.849998
v 252.000000 70.000000 0.000000
v 252.000000 0.000000 0.000000
vn 1.000000 0.000000 0.000000

g Mesh_47
usemtl mat-2
f 106//18 107//18 108//18
f 107//18 109//18 108//18
#
#	object Mesh_51
#
v 252.000000 0.000000 61.849998
v -18.000000 0.000000 61.849998
v 252.000000 0.000000 0.000000
v -18.000000 0.000000 0.000000
vn 0.000000 -1.000000 0.000000

g Mesh_51
usemtl mat-2
f 110//19 111//19 112//19
f 111//19 113//19 112//19
